<svg width="68" height="64" viewBox="0 0 68 64" fill="none" xmlns="http://www.w3.org/2000/svg">
<g clip-path="url(#clip0_138_483)">
<path d="M67.1778 53.0641C66.9603 51.7372 66.1444 50.5256 65.0022 49.9487C61.1949 47.9295 52.8733 44.9872 52.8733 44.9872V42.0449L53.0908 41.8718C54.6681 40.6026 55.8103 38.641 56.1367 36.5064L56.1911 36.2179H56.4086C57.714 36.2179 58.8018 35.3526 59.2369 34.1987C59.5088 33.6795 59.672 33.1026 59.672 32.4679C59.672 32.0641 59.6176 31.6603 59.4545 31.2564C59.4001 30.8526 59.1281 30.4487 58.8562 30.2179L58.0947 29.6987L58.2579 28.8333C59.672 22.4295 54.9401 16.6026 48.6309 16.4872C48.4677 16.4872 48.3045 16.4872 48.1958 16.4872C48.0326 16.4872 47.8694 16.4872 47.7606 16.4872C41.397 16.5449 36.7195 22.3718 38.0792 28.7756L38.2968 29.641L37.5353 30.1603C37.209 30.391 36.9914 30.7949 36.937 31.1987C36.7739 31.6026 36.7195 32.0064 36.7195 32.4103C36.7195 33.0449 36.8827 33.6218 37.1546 34.141C37.5897 35.3526 38.7319 36.1603 39.9829 36.1603H40.2004L40.2548 36.4487C40.5812 38.5833 41.669 40.5449 43.3007 41.8141L43.5182 41.9872V44.9295C43.5182 44.9295 35.1966 47.8718 31.3893 49.891C30.2471 50.5256 29.4312 51.6795 29.2137 53.0064C28.561 57.0449 28.4522 63.8526 28.4522 63.8526H67.9937C67.9393 63.9103 67.8305 57.1026 67.1778 53.0641Z" fill="#373737"/>
<path d="M30.1383 47.3526C32.3139 46.1987 35.7405 44.8141 38.46 43.7756C38.0792 42.968 37.4266 42.2756 36.6651 41.8718C32.8578 39.8526 24.5362 36.9103 24.5362 36.9103V33.9679L24.7537 33.7949C26.331 32.5256 27.4732 30.5641 27.7995 28.4295L27.8539 28.141H28.0715C29.3769 28.141 30.4647 27.2756 30.8998 26.1218C31.1717 25.6026 31.3349 25.0256 31.3349 24.391C31.3349 23.9872 31.2805 23.5833 31.1173 23.1795C31.0629 22.7756 30.791 22.3718 30.519 22.141L29.7576 21.6218L29.9208 20.7564C31.3349 14.3526 26.603 8.52564 20.2937 8.41026C20.1306 8.41026 19.9674 8.41026 19.8586 8.41026C19.6955 8.41026 19.5323 8.41026 19.4235 8.41026C13.1143 8.58333 8.43675 14.3526 9.7965 20.7564L10.0141 21.6218L9.2526 22.141C8.92626 22.3718 8.7087 22.7756 8.65431 23.1795C8.49114 23.5833 8.43675 23.9872 8.43675 24.391C8.43675 25.0256 8.59992 25.6026 8.87187 26.1218C9.30699 27.3333 10.4492 28.141 11.7001 28.141H11.9177L11.9721 28.4295C12.244 30.5641 13.3318 32.4679 14.9635 33.7949L15.1811 33.9679V36.9103C15.1811 36.9103 6.85944 39.8526 3.05215 41.8718C1.90996 42.5064 1.09411 43.6603 0.876555 44.9872C0.223877 49.0256 0.115097 55.8333 0.115097 55.8333H26.1135C26.2222 54.6795 26.331 53.5833 26.4942 52.6026C26.8749 50.2949 28.2347 48.391 30.1383 47.3526Z" fill="#373737"/>
<path d="M57.6927 14.4279C58.4122 15.4489 59.3154 15.8279 60.4556 15.5873C60.8057 15.5143 61.1488 15.4204 61.5117 15.3206C61.3898 13.6605 60.0063 12.3473 58.3217 12.3473C57.7678 12.3469 57.2231 12.4915 56.7399 12.7672C56.8134 12.9015 56.8846 13.0351 56.9546 13.1664C57.1962 13.619 57.4243 14.0466 57.6927 14.4279ZM42.0597 23.9626C41.6343 24.0255 41.2112 24.1188 40.7812 24.2263C41.2072 25.0014 41.6471 25.767 42.076 26.513L42.4098 27.0927L42.4191 27.0885C42.9232 26.8557 43.4443 26.6134 44.0085 26.4732C47.0941 25.6939 50.3162 25.8793 53.5843 27.0238C53.633 27.0412 53.6796 27.0596 53.7244 27.079L53.8131 26.9056C54.1474 26.2523 54.4928 25.5793 54.8634 24.9456C54.9981 24.7151 55.1347 24.4864 55.2718 24.2578C50.7474 23.434 46.3081 23.3342 42.0597 23.9626ZM35.1965 15.5481C36.4423 15.9449 37.4138 15.6509 38.2558 14.6227C38.617 14.1814 38.9088 13.6605 39.1235 13.2537C39.2063 13.0953 39.288 12.9357 39.3686 12.775C38.8814 12.4928 38.3303 12.3445 37.7698 12.345C36.0776 12.345 34.6877 13.6718 34.5775 15.3438L34.7758 15.4085C34.9165 15.4572 35.0577 15.5036 35.1965 15.5481Z" fill="#373737"/>
<path d="M62.0567 17.0971C61.6588 17.2058 61.2474 17.3187 60.8244 17.4084C58.9572 17.8021 57.3648 17.147 56.2147 15.5131C55.8804 15.0379 55.6137 14.539 55.3564 14.0567C55.2158 13.793 55.0827 13.5441 54.941 13.3024C54.7607 12.9947 54.5856 12.6811 54.4158 12.3776C53.9858 11.6061 53.5791 10.8779 53.0878 10.2246C52.3059 9.19583 51.1295 8.5615 49.4876 8.29125H49.48C49.2092 8.2402 48.9349 8.2114 48.6596 8.20513H48.3031C47.5434 8.20536 46.7865 8.29808 46.0484 8.48131C45.8991 8.51873 45.7649 8.55378 45.64 8.58823C43.9922 9.03666 42.8275 9.95728 42.0807 11.4024C41.8706 11.8086 41.6658 12.2339 41.4674 12.6461C41.234 13.1367 40.9883 13.6433 40.7252 14.1399C40.4708 14.621 40.1189 15.2464 39.6533 15.8148C38.3369 17.4238 36.608 17.9459 34.6545 17.3228C34.5086 17.2765 34.3627 17.229 34.2174 17.1809C33.9537 17.0942 33.697 17.0098 33.4443 16.9356H33.4344C33.3527 16.9112 33.2716 16.8887 33.1905 16.8673C33.194 16.8714 33.1975 16.875 33.2004 16.8792C33.8557 17.6745 34.5325 18.4994 35.2327 19.265C36.0794 20.194 36.9832 21.1128 37.855 22.0014C38.1304 22.2817 38.4122 22.5686 38.6929 22.8567L39.0301 22.7682C39.1285 22.7211 39.2345 22.6925 39.3429 22.6838L39.3971 22.6696C40.1709 22.4605 40.9726 22.2449 41.7971 22.1225C43.7405 21.8368 45.7017 21.6943 47.6653 21.6961C50.6711 21.703 53.6687 22.0146 56.6138 22.6262C56.6722 22.6387 56.7305 22.6529 56.7889 22.6678C56.9143 22.6774 57.0363 22.7136 57.1472 22.7741C57.2335 22.8026 57.3175 22.8335 57.3963 22.859L57.4383 22.8739L57.4646 22.8662C57.6029 22.7099 57.74 22.5531 57.8777 22.3957C58.4157 21.781 58.9723 21.1449 59.5698 20.548C59.8032 20.3104 60.0436 20.0782 60.2811 19.8441C61.2894 18.8523 62.2545 17.9031 63.0633 16.837C62.7359 16.9106 62.4033 17.0015 62.0567 17.0971ZM50.7614 17.6792C50.8843 17.8109 50.9666 17.9764 50.9982 18.1553C51.0297 18.3341 51.0091 18.5184 50.9388 18.6854C50.8685 18.8525 50.7517 18.9949 50.6028 19.095C50.4538 19.1952 50.2793 19.2487 50.1008 19.249C49.9773 19.2491 49.855 19.2235 49.7415 19.1738C49.628 19.124 49.5257 19.0512 49.4409 18.9598L48.0458 17.4606L46.6506 18.9598C46.5685 19.0502 46.4696 19.1232 46.3596 19.1743C46.2496 19.2255 46.1307 19.2539 46.0098 19.2578C45.8889 19.2618 45.7684 19.2412 45.6554 19.1973C45.5424 19.1534 45.4391 19.087 45.3515 19.0021C45.2639 18.9172 45.1938 18.8153 45.1453 18.7026C45.0967 18.5898 45.0707 18.4683 45.0687 18.3452C45.0667 18.2221 45.0888 18.0998 45.1337 17.9855C45.1786 17.8711 45.2454 17.767 45.3302 17.6792L46.7889 16.1106L45.3302 14.542C45.2454 14.4542 45.1786 14.35 45.1337 14.2357C45.0888 14.1214 45.0667 13.9991 45.0687 13.876C45.0707 13.7529 45.0967 13.6314 45.1453 13.5186C45.1938 13.4058 45.2639 13.304 45.3515 13.2191C45.4391 13.1342 45.5424 13.0678 45.6554 13.0239C45.7684 12.98 45.8889 12.9594 46.0098 12.9634C46.1307 12.9673 46.2496 12.9957 46.3596 13.0468C46.4696 13.098 46.5685 13.171 46.6506 13.2614L48.0458 14.7605L49.4409 13.2614C49.523 13.171 49.6219 13.098 49.7319 13.0468C49.8419 12.9957 49.9609 12.9673 50.0818 12.9634C50.2027 12.9594 50.3231 12.98 50.4361 13.0239C50.5491 13.0678 50.6524 13.1342 50.74 13.2191C50.8276 13.304 50.8977 13.4058 50.9463 13.5186C50.9948 13.6314 51.0208 13.7529 51.0228 13.876C51.0248 13.9991 51.0027 14.1214 50.9578 14.2357C50.9129 14.35 50.8461 14.4542 50.7614 14.542L49.3026 16.1106L50.7614 17.6792Z" fill="#373737"/>
<path d="M50.9982 18.1553C50.9667 17.9764 50.8843 17.8109 50.7614 17.6792L49.3026 16.1106L50.7614 14.542C50.8462 14.4542 50.9129 14.35 50.9578 14.2357C51.0027 14.1214 51.0248 13.9991 51.0228 13.876C51.0208 13.7529 50.9948 13.6314 50.9463 13.5186C50.8977 13.4058 50.8276 13.304 50.74 13.2191C50.6525 13.1342 50.5491 13.0678 50.4361 13.0239C50.3231 12.98 50.2027 12.9594 50.0818 12.9634C49.9609 12.9673 49.8419 12.9957 49.7319 13.0468C49.6219 13.098 49.523 13.171 49.4409 13.2614L48.0458 14.7605L46.6506 13.2614C46.5686 13.171 46.4696 13.098 46.3596 13.0468C46.2496 12.9957 46.1307 12.9673 46.0098 12.9634C45.8889 12.9594 45.7684 12.98 45.6554 13.0239C45.5424 13.0678 45.4391 13.1342 45.3515 13.2191C45.2639 13.304 45.1938 13.4058 45.1453 13.5186C45.0967 13.6314 45.0707 13.7529 45.0687 13.876C45.0667 13.9991 45.0888 14.1214 45.1337 14.2357C45.1786 14.35 45.2454 14.4542 45.3302 14.542L46.7889 16.1106L45.3302 17.6792C45.2454 17.767 45.1786 17.8711 45.1337 17.9855C45.0888 18.0998 45.0667 18.2221 45.0687 18.3452C45.0707 18.4683 45.0967 18.5898 45.1453 18.7026C45.1938 18.8153 45.2639 18.9172 45.3515 19.0021C45.4391 19.087 45.5424 19.1534 45.6554 19.1973C45.7684 19.2412 45.8889 19.2618 46.0098 19.2578C46.1307 19.2539 46.2496 19.2255 46.3596 19.1743C46.4696 19.1232 46.5686 19.0502 46.6506 18.9598L48.0458 17.4606L49.4409 18.9598C49.5257 19.0512 49.628 19.124 49.7415 19.1738C49.855 19.2235 49.9773 19.2491 50.1009 19.249C50.2793 19.2487 50.4538 19.1952 50.6028 19.095C50.7517 18.9949 50.8685 18.8525 50.9388 18.6854C51.0091 18.5184 51.0297 18.3341 50.9982 18.1553Z" fill="white"/>
<path d="M29.3594 6.2228C30.0789 7.2438 30.9821 7.62274 32.1223 7.38219C32.4724 7.30913 32.8155 7.21529 33.1784 7.11551C33.0565 5.45542 31.673 4.1422 29.9884 4.1422C29.4345 4.1418 28.8898 4.2864 28.4066 4.56212C28.4801 4.69635 28.5513 4.82999 28.6213 4.96125C28.8629 5.41384 29.091 5.84149 29.3594 6.2228ZM13.7263 15.7575C13.301 15.8204 12.8779 15.9137 12.4479 16.0212C12.8738 16.7963 13.3138 17.5619 13.7427 18.3079L14.0764 18.8876L14.0858 18.8834C14.5899 18.6506 15.111 18.4083 15.6752 18.2681C18.7607 17.4888 21.9828 17.6741 25.251 18.8187C25.2996 18.8361 25.3463 18.8545 25.391 18.8739L25.4797 18.7005C25.8141 18.0471 26.1595 17.3742 26.53 16.7404C26.6648 16.51 26.8014 16.2813 26.9385 16.0526C22.414 15.2288 17.9748 15.1291 13.7263 15.7575ZM6.86322 7.34299C8.10899 7.73975 9.08051 7.44574 9.9225 6.41762C10.2837 5.97631 10.5754 5.45542 10.7902 5.04856C10.873 4.89018 10.9547 4.7306 11.0352 4.56984C10.548 4.28762 9.99701 4.13942 9.43644 4.13982C7.7443 4.13982 6.35441 5.4667 6.24413 7.13867L6.44251 7.20341C6.58314 7.25211 6.72434 7.29844 6.86322 7.34299Z" fill="#373737"/>
<path d="M33.7234 8.892C33.3254 9.0007 32.9141 9.11355 32.491 9.20323C30.6238 9.59702 29.0315 8.9419 27.8814 7.30794C27.5471 6.83278 27.2804 6.33387 27.0231 5.85158C26.8825 5.58787 26.7494 5.339 26.6076 5.09727C26.4273 4.7896 26.2523 4.476 26.0825 4.17249C25.6524 3.40095 25.2457 2.67277 24.7544 2.01943C23.9725 0.990706 22.7962 0.356369 21.1543 0.0861225H21.1467C20.8759 0.0350699 20.6016 0.00626949 20.3263 0L19.9698 0C19.2101 0.00022914 18.4532 0.0929497 17.7151 0.276186C17.5657 0.313605 17.4315 0.348648 17.3067 0.383097C15.6589 0.831528 14.4942 1.75215 13.7473 3.19723C13.5373 3.60349 13.3325 4.02875 13.1341 4.44095C12.9007 4.93155 12.655 5.43819 12.3919 5.93473C12.1375 6.41583 11.7856 7.04126 11.32 7.60967C10.0036 9.21868 8.2747 9.74076 6.32114 9.1177C6.17527 9.07138 6.0294 9.02386 5.8841 8.97575C5.62036 8.88903 5.36362 8.80469 5.11097 8.73045H5.10105C5.01936 8.7061 4.93825 8.68353 4.85715 8.66215C4.86065 8.6663 4.86415 8.66987 4.86707 8.67402C5.52234 9.46932 6.19919 10.2943 6.89939 11.0599C7.74605 11.9889 8.64989 12.9077 9.52163 13.7962C9.79704 14.0766 10.0789 14.3635 10.3595 14.6515L10.6968 14.563C10.7952 14.516 10.9012 14.4874 11.0096 14.4787L11.0638 14.4644C11.8375 14.2554 12.6393 14.0398 13.4637 13.9174C15.4072 13.6316 17.3684 13.4891 19.332 13.4909C22.3378 13.4979 25.3354 13.8095 28.2805 14.4211C28.3389 14.4335 28.3972 14.4478 28.4556 14.4626C28.581 14.4723 28.703 14.5085 28.8138 14.569C28.9002 14.5975 28.9842 14.6284 29.063 14.6539L29.105 14.6687L29.1313 14.661C29.2695 14.5048 29.4067 14.348 29.5444 14.1906C30.0824 13.5759 30.639 12.9398 31.2365 12.3428C31.4699 12.1053 31.7103 11.873 31.9478 11.639C32.9561 10.6471 33.9212 9.69799 34.7299 8.63185C34.4026 8.7055 34.07 8.79638 33.7234 8.892ZM22.428 9.47407C22.551 9.60579 22.6333 9.7713 22.6649 9.95014C22.6964 10.129 22.6757 10.3133 22.6055 10.4803C22.5352 10.6473 22.4184 10.7897 22.2694 10.8899C22.1205 10.9901 21.946 11.0436 21.7675 11.0439C21.644 11.044 21.5217 11.0184 21.4082 10.9686C21.2947 10.9189 21.1924 10.8461 21.1076 10.7546L19.7124 9.2555L18.3173 10.7546C18.2352 10.8451 18.1363 10.918 18.0263 10.9692C17.9163 11.0204 17.7973 11.0487 17.6764 11.0527C17.5555 11.0566 17.4351 11.036 17.3221 10.9921C17.209 10.9482 17.1057 10.8819 17.0182 10.797C16.9306 10.712 16.8605 10.6102 16.8119 10.4974C16.7634 10.3847 16.7374 10.2632 16.7354 10.1401C16.7334 10.017 16.7555 9.89467 16.8004 9.78033C16.8453 9.66599 16.912 9.56189 16.9968 9.47407L18.4556 7.90546L16.9968 6.33684C16.912 6.24902 16.8453 6.14492 16.8004 6.03058C16.7555 5.91624 16.7334 5.79396 16.7354 5.67085C16.7374 5.54774 16.7634 5.42626 16.8119 5.31348C16.8605 5.20071 16.9306 5.09889 17.0182 5.01396C17.1057 4.92903 17.209 4.86268 17.3221 4.81877C17.4351 4.77487 17.5555 4.75429 17.6764 4.75822C17.7973 4.76216 17.9163 4.79054 18.0263 4.84172C18.1363 4.89289 18.2352 4.96582 18.3173 5.05628L19.7124 6.55541L21.1076 5.05628C21.1896 4.96582 21.2886 4.89289 21.3986 4.84172C21.5086 4.79054 21.6275 4.76216 21.7484 4.75822C21.8693 4.75429 21.9898 4.77487 22.1028 4.81877C22.2158 4.86268 22.3191 4.92903 22.4067 5.01396C22.4943 5.09889 22.5644 5.20071 22.6129 5.31348C22.6615 5.42626 22.6875 5.54774 22.6895 5.67085C22.6915 5.79396 22.6694 5.91624 22.6245 6.03058C22.5796 6.14492 22.5128 6.24902 22.428 6.33684L20.9693 7.90546L22.428 9.47407Z" fill="#373737"/>
<path d="M22.6649 9.95014C22.6333 9.7713 22.551 9.60579 22.428 9.47407L20.9693 7.90546L22.428 6.33684C22.5128 6.24903 22.5796 6.14492 22.6245 6.03058C22.6694 5.91625 22.6915 5.79396 22.6895 5.67085C22.6875 5.54774 22.6615 5.42626 22.6129 5.31348C22.5644 5.20071 22.4943 5.09889 22.4067 5.01396C22.3191 4.92903 22.2158 4.86268 22.1028 4.81877C21.9898 4.77487 21.8693 4.75429 21.7484 4.75823C21.6275 4.76216 21.5086 4.79055 21.3986 4.84172C21.2886 4.89289 21.1896 4.96583 21.1076 5.05629L19.7124 6.55541L18.3173 5.05629C18.2352 4.96583 18.1363 4.89289 18.0263 4.84172C17.9163 4.79055 17.7973 4.76216 17.6764 4.75823C17.5555 4.75429 17.4351 4.77487 17.3221 4.81877C17.2091 4.86268 17.1058 4.92903 17.0182 5.01396C16.9306 5.09889 16.8605 5.20071 16.8119 5.31348C16.7634 5.42626 16.7374 5.54774 16.7354 5.67085C16.7334 5.79396 16.7555 5.91625 16.8004 6.03058C16.8453 6.14492 16.912 6.24903 16.9968 6.33684L18.4556 7.90546L16.9968 9.47407C16.912 9.56189 16.8453 9.66599 16.8004 9.78033C16.7555 9.89467 16.7334 10.017 16.7354 10.1401C16.7374 10.2632 16.7634 10.3847 16.8119 10.4974C16.8605 10.6102 16.9306 10.712 17.0182 10.797C17.1058 10.8819 17.2091 10.9482 17.3221 10.9921C17.4351 11.036 17.5555 11.0566 17.6764 11.0527C17.7973 11.0487 17.9163 11.0204 18.0263 10.9692C18.1363 10.918 18.2352 10.8451 18.3173 10.7546L19.7124 9.2555L21.1076 10.7546C21.1924 10.8461 21.2947 10.9189 21.4082 10.9686C21.5217 11.0184 21.644 11.044 21.7675 11.0439C21.946 11.0436 22.1205 10.9901 22.2694 10.8899C22.4184 10.7897 22.5352 10.6473 22.6055 10.4803C22.6758 10.3133 22.6964 10.129 22.6649 9.95014Z" fill="white"/>
</g>
<defs>
<clipPath id="clip0_138_483">
<rect width="68" height="64" fill="white"/>
</clipPath>
</defs>
</svg>
