<svg width="165" height="165" viewBox="0 0 165 165" fill="none" xmlns="http://www.w3.org/2000/svg">
<circle cx="82.5" cy="82.5" r="81.5" fill="url(#paint0_linear_62_32)" stroke="black"/>
<path d="M82.5 138.923C114.354 138.923 140.177 113.1 140.177 81.2462C140.177 49.3921 114.354 23.5692 82.5 23.5692C50.6459 23.5692 24.8231 49.3921 24.8231 81.2462C24.8231 101.274 35.0306 118.917 50.5269 129.257V141.431C59.0531 142.434 64.1103 138.703 65.5731 136.399C70.9257 138.04 76.6098 138.923 82.5 138.923Z" fill="white"/>
<path d="M78.1115 126.174C79.5555 126.313 81.0195 126.385 82.5 126.385C83.7667 126.385 85.0212 126.332 86.2615 126.23V104.442C90.7754 103.941 97.4595 105.069 100.029 105.696C98.0633 110.212 95.5337 114.394 92.3202 117.608C92.5292 117.817 93.4486 118.611 95.4548 120.115C112.382 109.458 114.262 84.3808 114.262 78.1115C118.776 78.1115 125.131 80.2013 127.638 81.2462C127.638 104.909 109.431 124.319 86.2615 126.23C85.0212 126.332 83.7667 126.385 82.5 126.385C81.0195 126.385 79.5555 126.313 78.1115 126.174C55.2416 123.968 37.3615 104.695 37.3615 81.2462C39.8692 80.2013 46.0131 78.1115 50.5269 78.1115C50.5269 84.3808 52.4077 109.458 69.3346 120.115C71.3408 118.611 72.2603 117.817 72.4692 117.608C69.2557 114.394 66.7262 110.212 64.7603 105.696C67.3299 105.069 73.5977 103.941 78.1115 104.442V126.174Z" fill="url(#paint1_linear_62_32)"/>
<path d="M82.5 36.1077C81.0195 36.1077 79.5555 36.179 78.1115 36.3183C75.1709 36.602 72.0828 37.2372 69.3346 38.0578C55.5389 44.9482 52.1971 62.4385 51.1886 69.1283C44.8778 70.2483 40.2485 71.7052 38.2143 72.4692C41.4616 55.991 53.4466 42.8019 69.3346 38.0578C72.0828 37.2372 75.1709 36.602 78.1115 36.3183C79.5555 36.179 81.0195 36.1077 82.5 36.1077C83.7667 36.1077 85.0212 36.1599 86.2615 36.2622C89.43 36.5236 92.5058 37.1122 95.4548 37.9943C111.333 42.7434 123.54 55.9977 126.786 72.4692C124.752 71.7052 119.912 70.2483 113.601 69.1283C112.592 62.4385 109.25 44.8846 95.4548 37.9943C92.5058 37.1122 89.43 36.5236 86.2615 36.2622C85.0212 36.1599 83.7667 36.1077 82.5 36.1077Z" fill="url(#paint2_linear_62_32)"/>
<path d="M62.2336 98.8C59.6208 90.2656 58.6769 81.6739 58.6769 76.8577H78.1115V95.6654C67.4538 96.2923 65.4365 97.7551 62.2336 98.8Z" fill="url(#paint3_linear_62_32)"/>
<path d="M102.556 98.8C105.169 90.2656 106.112 81.6739 106.112 76.8577H86.2615V95.6654C96.9192 96.2923 99.3529 97.7551 102.556 98.8Z" fill="url(#paint4_linear_62_32)"/>
<path d="M78.1115 38.591C79.4924 38.2002 80.9543 37.9885 82.5 37.9885C83.815 37.9885 85.0682 38.1417 86.2615 38.4281C98.7226 41.4184 109.663 67.0333 104.859 68.0808C100.054 69.1283 86.2615 68.0808 86.2615 68.0808V38.4281C85.0682 38.1417 83.815 37.9885 82.5 37.9885C80.9543 37.9885 79.4924 38.2002 78.1115 38.591V68.0808H58.6769C60.177 59.0805 66.0513 42.0045 78.1115 38.591Z" fill="url(#paint5_linear_62_32)"/>
<defs>
<linearGradient id="paint0_linear_62_32" x1="82.5" y1="1" x2="82.5" y2="164" gradientUnits="userSpaceOnUse">
<stop offset="0.114583" stop-color="#FC6411"/>
<stop offset="1" stop-color="#CA4903"/>
</linearGradient>
<linearGradient id="paint1_linear_62_32" x1="82.5" y1="36.1077" x2="82.5" y2="126.385" gradientUnits="userSpaceOnUse">
<stop stop-color="#FC6411"/>
<stop offset="1" stop-color="#D94E03"/>
</linearGradient>
<linearGradient id="paint2_linear_62_32" x1="82.5" y1="36.1077" x2="82.5" y2="126.385" gradientUnits="userSpaceOnUse">
<stop stop-color="#FC6411"/>
<stop offset="1" stop-color="#D94E03"/>
</linearGradient>
<linearGradient id="paint3_linear_62_32" x1="82.5" y1="36.1077" x2="82.5" y2="126.385" gradientUnits="userSpaceOnUse">
<stop stop-color="#FC6411"/>
<stop offset="1" stop-color="#D94E03"/>
</linearGradient>
<linearGradient id="paint4_linear_62_32" x1="82.5" y1="36.1077" x2="82.5" y2="126.385" gradientUnits="userSpaceOnUse">
<stop stop-color="#FC6411"/>
<stop offset="1" stop-color="#D94E03"/>
</linearGradient>
<linearGradient id="paint5_linear_62_32" x1="82.5" y1="36.1077" x2="82.5" y2="126.385" gradientUnits="userSpaceOnUse">
<stop stop-color="#FC6411"/>
<stop offset="1" stop-color="#D94E03"/>
</linearGradient>
</defs>
</svg>
