<svg width="64" height="64" viewBox="0 0 64 64" fill="none" xmlns="http://www.w3.org/2000/svg">
<path d="M61 1H56.354C55.7539 0.99813 55.1672 1.17705 54.6702 1.51346C54.1733 1.84987 53.7892 2.32815 53.568 2.886L51 9.308L48.432 2.886C48.2108 2.32815 47.8267 1.84987 47.3298 1.51346C46.8328 1.17705 46.2461 0.99813 45.646 1H23C22.2044 1 21.4413 1.31607 20.8787 1.87868C20.3161 2.44129 20 3.20435 20 4C20 4.26522 19.8946 4.51957 19.7071 4.70711C19.5196 4.89464 19.2652 5 19 5H16.5C15.0418 5.00159 13.6438 5.58156 12.6127 6.61267C11.5816 7.64377 11.0016 9.0418 11 10.5C11 11.4283 10.6313 12.3185 9.97487 12.9749C9.3185 13.6313 8.42826 14 7.5 14H4C3.20435 14 2.44129 14.3161 1.87868 14.8787C1.31607 15.4413 1 16.2044 1 17V61C1 61.5304 1.21071 62.0391 1.58579 62.4142C1.96086 62.7893 2.46957 63 3 63H26.839C27.3678 62.9994 27.8872 62.8593 28.3445 62.5938C28.8019 62.3283 29.1812 61.9469 29.444 61.488L31.872 57.24L33.562 61.182C33.7933 61.7215 34.1778 62.1814 34.6678 62.5045C35.1579 62.8277 35.732 62.9999 36.319 63H61C61.5304 63 62.0391 62.7893 62.4142 62.4142C62.7893 62.0391 63 61.5304 63 61V3C63 2.46957 62.7893 1.96086 62.4142 1.58579C62.0391 1.21071 61.5304 1 61 1ZM46.574 3.629L50.074 12.372C50.1481 12.5579 50.2762 12.7173 50.4418 12.8296C50.6074 12.9419 50.8029 13.0019 51.003 13.0019C51.2031 13.0019 51.3986 12.9419 51.5642 12.8296C51.7298 12.7173 51.8579 12.5579 51.932 12.372L55.432 3.629C55.5051 3.44391 55.632 3.28502 55.7964 3.17288C55.9608 3.06074 56.155 3.00051 56.354 3H61V22.172L60.825 22.211C57.973 22.857 50.4 24.568 46.12 19.4C45.0861 18.1066 43.6125 17.2388 41.98 16.962C39.339 16.566 38 14.9 38 12C38 7.833 36.034 6.139 34.385 5.452C33.8475 5.24346 33.3655 4.91372 32.9762 4.48843C32.587 4.06315 32.3012 3.55379 32.141 3H45.646C45.846 2.99931 46.0416 3.05897 46.2071 3.17119C46.3727 3.28341 46.5006 3.44296 46.574 3.629ZM3 45.069C3.71576 45.144 4.42591 45.2653 5.126 45.432C6.91837 45.9101 8.53428 46.8963 9.77908 48.2716C11.0239 49.647 11.8445 51.353 12.142 53.184C12.725 56.29 14.45 58 17 58C18.0626 58.0229 19.1029 58.3089 20.0278 58.8325C20.9528 59.356 21.7334 60.1008 22.3 61H3V45.069ZM36.319 61C36.1232 61.0002 35.9316 60.9428 35.768 60.8351C35.6045 60.7274 35.4762 60.574 35.399 60.394L32.919 54.606C32.846 54.4348 32.7266 54.2873 32.5743 54.1803C32.422 54.0732 32.2428 54.0108 32.057 54H32C31.8241 53.9997 31.6513 54.0457 31.4989 54.1335C31.3465 54.2213 31.2199 54.3477 31.132 54.5L27.708 60.5C27.62 60.6525 27.4933 60.779 27.3407 60.8668C27.1881 60.9546 27.015 61.0005 26.839 61H24.631C23.859 59.527 21.538 56 17 56C16.432 56 14.705 56 14.108 52.816C13.7392 50.605 12.7388 48.5478 11.2272 46.8925C9.71566 45.2372 7.75756 44.0545 5.589 43.487C4.73711 43.2835 3.87198 43.1402 3 43.058V17C3 16.7348 3.10536 16.4804 3.29289 16.2929C3.48043 16.1054 3.73478 16 4 16H7.5C8.9582 15.9984 10.3562 15.4184 11.3873 14.3873C12.4184 13.3562 12.9984 11.9582 13 10.5C13 9.57174 13.3687 8.6815 14.0251 8.02513C14.6815 7.36875 15.5717 7 16.5 7H19C19.7956 7 20.5587 6.68393 21.1213 6.12132C21.6839 5.55871 22 4.79565 22 4C22 3.73478 22.1054 3.48043 22.2929 3.29289C22.4804 3.10536 22.7348 3 23 3H30.082C30.2607 3.95643 30.6784 4.85215 31.296 5.60392C31.9137 6.3557 32.7114 6.93913 33.615 7.3C35.2 7.958 36 9.54 36 12C36 15.867 38.071 18.4 41.681 18.943C42.8284 19.1448 43.8611 19.763 44.581 20.679C47.418 24.106 51.417 24.989 54.89 24.989C56.9487 24.9591 58.9978 24.7018 61 24.222V61H36.319Z" fill="black"/>
<path d="M56 45H47V43H54C54.1779 43.0001 54.3527 42.9526 54.5061 42.8626C54.6596 42.7726 54.7863 42.6433 54.8731 42.488C54.96 42.3327 55.0038 42.157 55.0001 41.9791C54.9963 41.8012 54.9452 41.6275 54.852 41.476L46.852 28.476C46.738 28.2904 46.5664 28.1471 46.3635 28.068C46.1606 27.9888 45.9373 27.978 45.7277 28.0373C45.5181 28.0966 45.3336 28.2227 45.2023 28.3965C45.0709 28.5703 44.9999 28.7822 45 29V45H36C35.7348 45 35.4804 45.1054 35.2929 45.2929C35.1054 45.4804 35 45.7348 35 46C35.0021 47.8559 35.7403 49.6351 37.0526 50.9474C38.3649 52.2597 40.1441 52.9979 42 53H54C54.7956 53 55.5587 52.6839 56.1213 52.1213C56.6839 51.5587 57 50.7956 57 50V46C57 45.7348 56.8946 45.4804 56.7071 45.2929C56.5196 45.1054 56.2652 45 56 45ZM47 32.533L52.21 41H47V32.533ZM55 50C55 50.2652 54.8946 50.5196 54.7071 50.7071C54.5196 50.8946 54.2652 51 54 51H42C40.8477 50.9987 39.7312 50.6002 38.8386 49.8715C37.946 49.1428 37.3319 48.1287 37.1 47H55V50Z" fill="black"/>
<path d="M27.707 19.707L29.5 17.914L31.293 19.707L32.707 18.293L30.914 16.5L32.707 14.707L31.293 13.293L29.5 15.086L27.707 13.293L26.293 14.707L28.086 16.5L26.293 18.293L27.707 19.707Z" fill="black"/>
<path d="M23.734 18.874L22.763 17.125C21.2389 17.9712 19.8535 19.046 18.655 20.312L20.107 21.687C21.1651 20.5694 22.3883 19.6208 23.734 18.874ZM18.006 24.5L16.275 23.5C15.5043 24.8311 14.9192 26.2614 14.536 27.751L16.472 28.251C16.8101 26.9366 17.3262 25.6746 18.006 24.5ZM16 32C16 31.6847 16.0097 31.372 16.029 31.062L14.029 30.938C14.0097 31.2893 14 31.6433 14 32C14.001 33.069 14.1014 34.1356 14.3 35.186L16.265 34.814C16.089 33.8863 16.0003 32.9442 16 32ZM15.236 38.375C15.8556 39.9055 16.6954 41.3373 17.729 42.625L19.29 41.375C18.3778 40.2389 17.6366 38.9756 17.09 37.625L15.236 38.375ZM19.755 44.75C20.9043 45.7639 22.1848 46.6185 23.562 47.291L24.438 45.491C23.2227 44.8976 22.0929 44.1431 21.079 43.248L19.755 44.75ZM26.75 48.464C28.1385 48.8208 29.5664 49.0009 31 49V47C29.7351 47.0007 28.4752 46.8421 27.25 46.528L26.75 48.464ZM41.773 36.634C41.8667 36.5196 41.9339 36.3858 41.9697 36.2423C42.0055 36.0987 42.009 35.949 41.98 35.804L41.27 32.25C41.1415 31.6161 40.798 31.0459 40.2977 30.636C39.7974 30.226 39.1708 30.0014 38.524 30C38.3349 29.9998 38.152 29.9325 38.0077 29.8102C37.8635 29.688 37.7672 29.5185 37.736 29.332L37.404 27.342C37.2497 26.4195 36.7769 25.5802 36.068 24.9701C35.359 24.36 34.4586 24.0176 33.5234 24.0025C32.5882 23.9874 31.6772 24.3005 30.9489 24.8874C30.2206 25.4743 29.721 26.2979 29.537 27.215L29.168 29.06C27.9681 29.2329 26.8546 29.7839 25.9893 30.6329C25.124 31.4819 24.5518 32.5846 24.356 33.781L24.014 35.835C23.99 35.9783 23.9976 36.125 24.0361 36.2651C24.0746 36.4052 24.1431 36.5352 24.237 36.646C24.3308 36.7569 24.4477 36.846 24.5795 36.9071C24.7112 36.9683 24.8547 37 25 37H41C41.1479 37 41.2939 36.9671 41.4276 36.9038C41.5613 36.8405 41.6792 36.7484 41.773 36.634ZM26.18 35L26.329 34.11C26.4716 33.24 26.9193 32.4491 27.592 31.8793C28.2647 31.3094 29.1184 30.9977 30 31C30.2305 31 30.454 30.9204 30.6326 30.7747C30.8112 30.6289 30.9339 30.4259 30.98 30.2L31.498 27.611C31.5898 27.1522 31.8396 26.7401 32.2038 26.4464C32.5681 26.1527 33.0238 25.996 33.4917 26.0036C33.9595 26.0112 34.4099 26.1826 34.7644 26.488C35.119 26.7934 35.3552 27.2134 35.432 27.675L35.763 29.664C35.871 30.3177 36.2081 30.9117 36.7139 31.3397C37.2198 31.7677 37.8614 32.0017 38.524 32C38.709 31.9999 38.8884 32.0639 39.0315 32.1811C39.1746 32.2984 39.2727 32.4616 39.309 32.643L39.78 35H26.18Z" fill="black"/>
</svg>
